<mxfile host="app.diagrams.net" modified="2023-12-07T02:32:32.676Z" agent="Mozilla/5.0 (Windows NT 10.0; Win64; x64) AppleWebKit/537.36 (KHTML, like Gecko) Chrome/118.0.0.0 Safari/537.36 OPR/104.0.0.0" etag="GhW2hKxWhQuwOuf2awb9" version="22.1.5" type="google" pages="2">
  <diagram name="Page-1" id="hCsmekSu_RjItJskllPU">
    <mxGraphModel grid="1" page="1" gridSize="10" guides="1" tooltips="1" connect="1" arrows="1" fold="1" pageScale="1" pageWidth="1400" pageHeight="850" math="0" shadow="0">
      <root>
        <mxCell id="0" />
        <mxCell id="1" parent="0" />
        <mxCell id="-ZGTA8ax-etmkUPxRzkk-2" value="User" style="shape=umlActor;verticalLabelPosition=bottom;verticalAlign=top;html=1;outlineConnect=0;" vertex="1" parent="1">
          <mxGeometry x="202.5" y="120" width="30" height="60" as="geometry" />
        </mxCell>
        <mxCell id="-ZGTA8ax-etmkUPxRzkk-5" value="" style="html=1;points=[[0,0,0,0,5],[0,1,0,0,-5],[1,0,0,0,5],[1,1,0,0,-5]];perimeter=orthogonalPerimeter;outlineConnect=0;targetShapes=umlLifeline;portConstraint=eastwest;newEdgeStyle={&quot;curved&quot;:0,&quot;rounded&quot;:0};" vertex="1" parent="1">
          <mxGeometry x="212.5" y="210" width="10" height="520" as="geometry" />
        </mxCell>
        <mxCell id="0PkzSYG3OD-BYgoKE-rS-12" style="edgeStyle=orthogonalEdgeStyle;rounded=0;orthogonalLoop=1;jettySize=auto;html=1;curved=0;dashed=1;" edge="1" parent="1">
          <mxGeometry relative="1" as="geometry">
            <mxPoint x="582.5" y="729" as="sourcePoint" />
            <mxPoint x="222.5" y="729" as="targetPoint" />
            <Array as="points">
              <mxPoint x="492.5" y="729" />
              <mxPoint x="492.5" y="729" />
            </Array>
          </mxGeometry>
        </mxCell>
        <mxCell id="0PkzSYG3OD-BYgoKE-rS-13" value="return UserRole" style="edgeLabel;html=1;align=center;verticalAlign=middle;resizable=0;points=[];" connectable="0" vertex="1" parent="0PkzSYG3OD-BYgoKE-rS-12">
          <mxGeometry x="-0.2833" y="1" relative="1" as="geometry">
            <mxPoint x="-71" y="-11" as="offset" />
          </mxGeometry>
        </mxCell>
        <mxCell id="JNZOTvQrneMRgi3AhKJN-13" style="edgeStyle=orthogonalEdgeStyle;rounded=0;orthogonalLoop=1;jettySize=auto;html=1;curved=0;" edge="1" parent="1">
          <mxGeometry relative="1" as="geometry">
            <mxPoint x="589.5" y="630" as="sourcePoint" />
            <mxPoint x="1060" y="635" as="targetPoint" />
            <Array as="points">
              <mxPoint x="590" y="635" />
            </Array>
          </mxGeometry>
        </mxCell>
        <mxCell id="JNZOTvQrneMRgi3AhKJN-17" value="getUserRole(UserHash : string) : string" style="edgeLabel;html=1;align=center;verticalAlign=middle;resizable=0;points=[];" vertex="1" connectable="0" parent="JNZOTvQrneMRgi3AhKJN-13">
          <mxGeometry x="0.2093" relative="1" as="geometry">
            <mxPoint x="-82" y="-15" as="offset" />
          </mxGeometry>
        </mxCell>
        <mxCell id="-ZGTA8ax-etmkUPxRzkk-10" value="" style="html=1;points=[[0,0,0,0,5],[0,1,0,0,-5],[1,0,0,0,5],[1,1,0,0,-5]];perimeter=orthogonalPerimeter;outlineConnect=0;targetShapes=umlLifeline;portConstraint=eastwest;newEdgeStyle={&quot;curved&quot;:0,&quot;rounded&quot;:0};" vertex="1" parent="1">
          <mxGeometry x="582.5" y="330" width="10" height="400" as="geometry" />
        </mxCell>
        <mxCell id="0PkzSYG3OD-BYgoKE-rS-10" style="edgeStyle=orthogonalEdgeStyle;rounded=0;orthogonalLoop=1;jettySize=auto;html=1;curved=0;dashed=1;exitX=0;exitY=0.984;exitDx=0;exitDy=0;exitPerimeter=0;" edge="1" parent="1">
          <mxGeometry relative="1" as="geometry">
            <mxPoint x="1058.5" y="499.99999999999994" as="sourcePoint" />
            <mxPoint x="592.5" y="501.92" as="targetPoint" />
            <Array as="points">
              <mxPoint x="1058.5" y="501.92" />
              <mxPoint x="826.5" y="501.92" />
              <mxPoint x="826.5" y="502.9200000000001" />
            </Array>
          </mxGeometry>
        </mxCell>
        <mxCell id="0PkzSYG3OD-BYgoKE-rS-11" value="return True" style="edgeLabel;html=1;align=center;verticalAlign=middle;resizable=0;points=[];" connectable="0" vertex="1" parent="0PkzSYG3OD-BYgoKE-rS-10">
          <mxGeometry x="0.037" y="1" relative="1" as="geometry">
            <mxPoint y="-12" as="offset" />
          </mxGeometry>
        </mxCell>
        <mxCell id="-ZGTA8ax-etmkUPxRzkk-16" value="" style="html=1;points=[[0,0,0,0,5],[0,1,0,0,-5],[1,0,0,0,5],[1,1,0,0,-5]];perimeter=orthogonalPerimeter;outlineConnect=0;targetShapes=umlLifeline;portConstraint=eastwest;newEdgeStyle={&quot;curved&quot;:0,&quot;rounded&quot;:0};" vertex="1" parent="1">
          <mxGeometry x="1060" y="470" width="10" height="50" as="geometry" />
        </mxCell>
        <mxCell id="-ZGTA8ax-etmkUPxRzkk-18" value="Authentication Class" style="text;html=1;align=center;verticalAlign=middle;whiteSpace=wrap;rounded=0;perimeterSpacing=1;fillColor=#FFFFFF;fontColor=#333333;strokeColor=#000000;strokeWidth=2;" vertex="1" parent="1">
          <mxGeometry x="540" y="140" width="95" height="40" as="geometry" />
        </mxCell>
        <mxCell id="-ZGTA8ax-etmkUPxRzkk-20" value="SQLServer" style="text;html=1;align=center;verticalAlign=middle;whiteSpace=wrap;rounded=0;strokeWidth=2;perimeterSpacing=0;fillColor=#FFFFFF;fontColor=#333333;strokeColor=#000000;" vertex="1" parent="1">
          <mxGeometry x="1020" y="135" width="85" height="50" as="geometry" />
        </mxCell>
        <mxCell id="-ZGTA8ax-etmkUPxRzkk-51" style="edgeStyle=orthogonalEdgeStyle;rounded=0;orthogonalLoop=1;jettySize=auto;html=1;curved=0;" edge="1" parent="1">
          <mxGeometry relative="1" as="geometry">
            <Array as="points" />
            <mxPoint x="223.75" y="330" as="sourcePoint" />
            <mxPoint x="583.75" y="330" as="targetPoint" />
          </mxGeometry>
        </mxCell>
        <mxCell id="-ZGTA8ax-etmkUPxRzkk-52" value="validateLogin(username : string, OTP : string) : string" style="edgeLabel;html=1;align=center;verticalAlign=middle;resizable=0;points=[];" connectable="0" vertex="1" parent="-ZGTA8ax-etmkUPxRzkk-51">
          <mxGeometry x="-0.04" y="-1" relative="1" as="geometry">
            <mxPoint y="-11" as="offset" />
          </mxGeometry>
        </mxCell>
        <mxCell id="-ZGTA8ax-etmkUPxRzkk-55" style="edgeStyle=orthogonalEdgeStyle;rounded=0;orthogonalLoop=1;jettySize=auto;html=1;curved=0;" edge="1" parent="1">
          <mxGeometry relative="1" as="geometry">
            <Array as="points">
              <mxPoint x="593.75" y="390" />
              <mxPoint x="623.75" y="390" />
              <mxPoint x="623.75" y="430" />
            </Array>
            <mxPoint x="594" y="390" as="sourcePoint" />
            <mxPoint x="593.75" y="430" as="targetPoint" />
          </mxGeometry>
        </mxCell>
        <mxCell id="-ZGTA8ax-etmkUPxRzkk-56" value="hashOTP(OTP : string, user_salt : string) : string" style="edgeLabel;html=1;align=center;verticalAlign=middle;resizable=0;points=[];" connectable="0" vertex="1" parent="-ZGTA8ax-etmkUPxRzkk-55">
          <mxGeometry x="-0.1425" y="-2" relative="1" as="geometry">
            <mxPoint x="124" y="18" as="offset" />
          </mxGeometry>
        </mxCell>
        <mxCell id="-ZGTA8ax-etmkUPxRzkk-57" value="" style="line;strokeWidth=2;direction=south;html=1;dashed=1;" vertex="1" parent="1">
          <mxGeometry x="582.5" y="180" width="10" height="150" as="geometry" />
        </mxCell>
        <mxCell id="rpKHV8mOW_gamGoOqBA--2" style="edgeStyle=orthogonalEdgeStyle;rounded=0;orthogonalLoop=1;jettySize=auto;html=1;curved=0;" edge="1" parent="1" target="rpKHV8mOW_gamGoOqBA--8">
          <mxGeometry relative="1" as="geometry">
            <Array as="points">
              <mxPoint x="710" y="470" />
              <mxPoint x="710" y="470" />
            </Array>
            <mxPoint x="592.5" y="470" as="sourcePoint" />
            <mxPoint x="1048.75" y="470" as="targetPoint" />
          </mxGeometry>
        </mxCell>
        <mxCell id="rpKHV8mOW_gamGoOqBA--3" value="validateUserOTPHash(username : string) : string" style="edgeLabel;html=1;align=center;verticalAlign=middle;resizable=0;points=[];" connectable="0" vertex="1" parent="rpKHV8mOW_gamGoOqBA--2">
          <mxGeometry x="-0.04" y="1" relative="1" as="geometry">
            <mxPoint y="-9" as="offset" />
          </mxGeometry>
        </mxCell>
        <mxCell id="rpKHV8mOW_gamGoOqBA--4" style="edgeStyle=orthogonalEdgeStyle;rounded=0;orthogonalLoop=1;jettySize=auto;html=1;curved=0;" edge="1" parent="1">
          <mxGeometry relative="1" as="geometry">
            <Array as="points">
              <mxPoint x="1070" y="480" />
              <mxPoint x="1100" y="480" />
              <mxPoint x="1100" y="500" />
              <mxPoint x="1070" y="500" />
            </Array>
            <mxPoint x="1070" y="470" as="sourcePoint" />
            <mxPoint x="1070" y="500" as="targetPoint" />
          </mxGeometry>
        </mxCell>
        <mxCell id="rpKHV8mOW_gamGoOqBA--5" value="SELECT CASE&amp;nbsp;&lt;br style=&quot;font-size: 10px;&quot;&gt;&amp;nbsp; &amp;nbsp; &amp;nbsp; &amp;nbsp; &amp;nbsp;WHEN hashedOTP = otp_hash THEN TRUE&lt;br style=&quot;font-size: 10px;&quot;&gt;&amp;nbsp; &amp;nbsp; &amp;nbsp; &amp;nbsp; &amp;nbsp;ELSE FALSE&lt;br style=&quot;font-size: 10px;&quot;&gt;&amp;nbsp; &amp;nbsp; &amp;nbsp; &amp;nbsp;END AS IsMatch&lt;br style=&quot;font-size: 10px;&quot;&gt;FROM user_authentication&lt;br style=&quot;font-size: 10px;&quot;&gt;WHERE username = [desired_username];" style="edgeLabel;align=center;verticalAlign=middle;resizable=1;points=[];movable=1;rotatable=1;deletable=1;editable=1;locked=0;connectable=1;rotation=0;html=1;fontSize=10;" connectable="0" vertex="1" parent="rpKHV8mOW_gamGoOqBA--4">
          <mxGeometry x="-0.2923" y="1" relative="1" as="geometry">
            <mxPoint x="128" y="16" as="offset" />
          </mxGeometry>
        </mxCell>
        <mxCell id="0PkzSYG3OD-BYgoKE-rS-7" style="edgeStyle=orthogonalEdgeStyle;rounded=0;orthogonalLoop=1;jettySize=auto;html=1;curved=0;" edge="1" parent="1">
          <mxGeometry relative="1" as="geometry">
            <Array as="points">
              <mxPoint x="594" y="340" />
              <mxPoint x="624" y="340" />
              <mxPoint x="624" y="380" />
            </Array>
            <mxPoint x="594" y="340" as="sourcePoint" />
            <mxPoint x="593.75" y="380" as="targetPoint" />
          </mxGeometry>
        </mxCell>
        <mxCell id="0PkzSYG3OD-BYgoKE-rS-8" value="SqlConnection()" style="edgeLabel;html=1;align=center;verticalAlign=middle;resizable=0;points=[];" connectable="0" vertex="1" parent="0PkzSYG3OD-BYgoKE-rS-7">
          <mxGeometry x="-0.1425" y="-2" relative="1" as="geometry">
            <mxPoint x="50" y="14" as="offset" />
          </mxGeometry>
        </mxCell>
        <mxCell id="rpKHV8mOW_gamGoOqBA--8" value="" style="line;strokeWidth=2;direction=south;html=1;dashed=1;" vertex="1" parent="1">
          <mxGeometry x="1060" y="190" width="10" height="280" as="geometry" />
        </mxCell>
        <mxCell id="0PkzSYG3OD-BYgoKE-rS-16" value="" style="line;strokeWidth=2;direction=south;html=1;dashed=1;" vertex="1" parent="1">
          <mxGeometry x="582.5" y="730" width="10" height="110" as="geometry" />
        </mxCell>
        <mxCell id="0PkzSYG3OD-BYgoKE-rS-17" value="" style="line;strokeWidth=2;direction=south;html=1;dashed=1;" vertex="1" parent="1">
          <mxGeometry x="212.5" y="730" width="10" height="110" as="geometry" />
        </mxCell>
        <mxCell id="JNZOTvQrneMRgi3AhKJN-3" value="User has already received their OTP from their email" style="text;html=1;align=center;verticalAlign=middle;whiteSpace=wrap;rounded=0;fillColor=#FFFFFF;fontColor=#333333;strokeColor=#000000;strokeWidth=2;" vertex="1" parent="1">
          <mxGeometry x="170" y="240" width="110" height="50" as="geometry" />
        </mxCell>
        <mxCell id="JNZOTvQrneMRgi3AhKJN-4" value="LogManager" style="shape=umlLifeline;perimeter=lifelinePerimeter;whiteSpace=wrap;html=1;container=1;dropTarget=0;collapsible=0;recursiveResize=0;outlineConnect=0;portConstraint=eastwest;newEdgeStyle={&quot;curved&quot;:0,&quot;rounded&quot;:0};strokeWidth=2;" vertex="1" parent="1">
          <mxGeometry x="910" y="140" width="100" height="700" as="geometry" />
        </mxCell>
        <mxCell id="JNZOTvQrneMRgi3AhKJN-5" value="" style="html=1;points=[[0,0,0,0,5],[0,1,0,0,-5],[1,0,0,0,5],[1,1,0,0,-5]];perimeter=orthogonalPerimeter;outlineConnect=0;targetShapes=umlLifeline;portConstraint=eastwest;newEdgeStyle={&quot;curved&quot;:0,&quot;rounded&quot;:0};" vertex="1" parent="JNZOTvQrneMRgi3AhKJN-4">
          <mxGeometry x="45" y="410" width="10" height="60" as="geometry" />
        </mxCell>
        <mxCell id="JNZOTvQrneMRgi3AhKJN-7" value="return True" style="html=1;verticalAlign=bottom;endArrow=open;dashed=1;endSize=8;curved=0;rounded=0;exitX=0;exitY=1;exitDx=0;exitDy=-5;exitPerimeter=0;" edge="1" parent="1" source="JNZOTvQrneMRgi3AhKJN-5" target="-ZGTA8ax-etmkUPxRzkk-10">
          <mxGeometry relative="1" as="geometry">
            <mxPoint x="847.5" y="565" as="targetPoint" />
          </mxGeometry>
        </mxCell>
        <mxCell id="JNZOTvQrneMRgi3AhKJN-6" value="logInsert(UserHash : string, ActionType : string, &lt;br&gt;Timestamp : date, Status : string, Details : string) : bool" style="html=1;verticalAlign=bottom;endArrow=block;curved=0;rounded=0;" edge="1" parent="1">
          <mxGeometry x="0.0016" relative="1" as="geometry">
            <mxPoint x="592.5" y="550" as="sourcePoint" />
            <mxPoint x="955" y="550" as="targetPoint" />
            <mxPoint as="offset" />
          </mxGeometry>
        </mxCell>
        <mxCell id="JNZOTvQrneMRgi3AhKJN-14" value="" style="html=1;points=[[0,0,0,0,5],[0,1,0,0,-5],[1,0,0,0,5],[1,1,0,0,-5]];perimeter=orthogonalPerimeter;outlineConnect=0;targetShapes=umlLifeline;portConstraint=eastwest;newEdgeStyle={&quot;curved&quot;:0,&quot;rounded&quot;:0};" vertex="1" parent="1">
          <mxGeometry x="1058" y="635" width="10" height="80" as="geometry" />
        </mxCell>
        <mxCell id="JNZOTvQrneMRgi3AhKJN-16" value="return UserRole" style="html=1;verticalAlign=bottom;endArrow=open;dashed=1;endSize=8;curved=0;rounded=0;exitX=1;exitY=1;exitDx=0;exitDy=-5;" edge="1" parent="1" source="JNZOTvQrneMRgi3AhKJN-14" target="-ZGTA8ax-etmkUPxRzkk-10">
          <mxGeometry relative="1" as="geometry">
            <mxPoint x="600" y="710" as="targetPoint" />
          </mxGeometry>
        </mxCell>
        <mxCell id="JNZOTvQrneMRgi3AhKJN-19" style="edgeStyle=orthogonalEdgeStyle;rounded=0;orthogonalLoop=1;jettySize=auto;html=1;curved=0;elbow=horizontal;" edge="1" parent="1" source="JNZOTvQrneMRgi3AhKJN-14" target="JNZOTvQrneMRgi3AhKJN-14">
          <mxGeometry relative="1" as="geometry">
            <Array as="points">
              <mxPoint x="1100" y="690" />
            </Array>
          </mxGeometry>
        </mxCell>
        <mxCell id="JNZOTvQrneMRgi3AhKJN-20" value="SELECT UserRole FROM userAccount&lt;br&gt;WHEN UserHash = user_hash" style="edgeLabel;html=1;align=center;verticalAlign=middle;resizable=0;points=[];" vertex="1" connectable="0" parent="JNZOTvQrneMRgi3AhKJN-19">
          <mxGeometry x="-0.4043" y="-1" relative="1" as="geometry">
            <mxPoint x="104" y="14" as="offset" />
          </mxGeometry>
        </mxCell>
        <mxCell id="JNZOTvQrneMRgi3AhKJN-21" value="" style="line;strokeWidth=2;direction=south;html=1;dashed=1;" vertex="1" parent="1">
          <mxGeometry x="1058" y="520" width="10" height="120" as="geometry" />
        </mxCell>
        <mxCell id="0PkzSYG3OD-BYgoKE-rS-14" value="" style="line;strokeWidth=2;direction=south;html=1;dashed=1;" vertex="1" parent="1">
          <mxGeometry x="1057.5" y="715" width="10" height="125" as="geometry" />
        </mxCell>
      </root>
    </mxGraphModel>
  </diagram>
  <diagram id="tIdaFL0SggWhshtIWBRx" name="Page-2">
    <mxGraphModel grid="1" page="1" gridSize="10" guides="1" tooltips="1" connect="1" arrows="1" fold="1" pageScale="1" pageWidth="1400" pageHeight="850" math="0" shadow="0">
      <root>
        <mxCell id="0" />
        <mxCell id="1" parent="0" />
        <mxCell id="tmKrowgk_wzVTvCXA8D7-1" value="User" style="shape=umlActor;verticalLabelPosition=bottom;verticalAlign=top;html=1;outlineConnect=0;" vertex="1" parent="1">
          <mxGeometry x="-1327.5" y="20" width="30" height="60" as="geometry" />
        </mxCell>
        <mxCell id="tmKrowgk_wzVTvCXA8D7-2" value="" style="html=1;points=[[0,0,0,0,5],[0,1,0,0,-5],[1,0,0,0,5],[1,1,0,0,-5]];perimeter=orthogonalPerimeter;outlineConnect=0;targetShapes=umlLifeline;portConstraint=eastwest;newEdgeStyle={&quot;curved&quot;:0,&quot;rounded&quot;:0};" vertex="1" parent="1">
          <mxGeometry x="-1317.5" y="110" width="10" height="520" as="geometry" />
        </mxCell>
        <mxCell id="tmKrowgk_wzVTvCXA8D7-3" style="edgeStyle=orthogonalEdgeStyle;rounded=0;orthogonalLoop=1;jettySize=auto;html=1;curved=0;dashed=1;" edge="1" parent="1">
          <mxGeometry relative="1" as="geometry">
            <mxPoint x="-947.5" y="629" as="sourcePoint" />
            <mxPoint x="-1307.5" y="629" as="targetPoint" />
            <Array as="points">
              <mxPoint x="-1037.5" y="629" />
              <mxPoint x="-1037.5" y="629" />
            </Array>
          </mxGeometry>
        </mxCell>
        <mxCell id="tmKrowgk_wzVTvCXA8D7-4" value="RoleObject user = new {userRoleObject}" style="edgeLabel;html=1;align=center;verticalAlign=middle;resizable=0;points=[];" connectable="0" vertex="1" parent="tmKrowgk_wzVTvCXA8D7-3">
          <mxGeometry x="-0.2833" y="1" relative="1" as="geometry">
            <mxPoint x="-71" y="-11" as="offset" />
          </mxGeometry>
        </mxCell>
        <mxCell id="tmKrowgk_wzVTvCXA8D7-7" value="" style="html=1;points=[[0,0,0,0,5],[0,1,0,0,-5],[1,0,0,0,5],[1,1,0,0,-5]];perimeter=orthogonalPerimeter;outlineConnect=0;targetShapes=umlLifeline;portConstraint=eastwest;newEdgeStyle={&quot;curved&quot;:0,&quot;rounded&quot;:0};" vertex="1" parent="1">
          <mxGeometry x="-947.5" y="230" width="10" height="400" as="geometry" />
        </mxCell>
        <mxCell id="tmKrowgk_wzVTvCXA8D7-8" style="edgeStyle=orthogonalEdgeStyle;rounded=0;orthogonalLoop=1;jettySize=auto;html=1;curved=0;dashed=1;exitX=0;exitY=0.984;exitDx=0;exitDy=0;exitPerimeter=0;" edge="1" parent="1">
          <mxGeometry relative="1" as="geometry">
            <mxPoint x="-471.5" y="399.99999999999994" as="sourcePoint" />
            <mxPoint x="-937.5" y="401.92" as="targetPoint" />
            <Array as="points">
              <mxPoint x="-471.5" y="401.92" />
              <mxPoint x="-703.5" y="401.92" />
              <mxPoint x="-703.5" y="402.9200000000001" />
            </Array>
          </mxGeometry>
        </mxCell>
        <mxCell id="tmKrowgk_wzVTvCXA8D7-9" value="return userRole, userHash" style="edgeLabel;html=1;align=center;verticalAlign=middle;resizable=0;points=[];" connectable="0" vertex="1" parent="tmKrowgk_wzVTvCXA8D7-8">
          <mxGeometry x="0.037" y="1" relative="1" as="geometry">
            <mxPoint y="-12" as="offset" />
          </mxGeometry>
        </mxCell>
        <mxCell id="tmKrowgk_wzVTvCXA8D7-10" value="" style="html=1;points=[[0,0,0,0,5],[0,1,0,0,-5],[1,0,0,0,5],[1,1,0,0,-5]];perimeter=orthogonalPerimeter;outlineConnect=0;targetShapes=umlLifeline;portConstraint=eastwest;newEdgeStyle={&quot;curved&quot;:0,&quot;rounded&quot;:0};" vertex="1" parent="1">
          <mxGeometry x="-470" y="370" width="10" height="50" as="geometry" />
        </mxCell>
        <mxCell id="tmKrowgk_wzVTvCXA8D7-11" value="Authentication Class" style="text;html=1;align=center;verticalAlign=middle;whiteSpace=wrap;rounded=0;perimeterSpacing=1;fillColor=#FFFFFF;fontColor=#333333;strokeColor=#000000;strokeWidth=2;" vertex="1" parent="1">
          <mxGeometry x="-990" y="40" width="95" height="40" as="geometry" />
        </mxCell>
        <mxCell id="tmKrowgk_wzVTvCXA8D7-12" value="SQLServer" style="text;html=1;align=center;verticalAlign=middle;whiteSpace=wrap;rounded=0;strokeWidth=2;perimeterSpacing=0;fillColor=#FFFFFF;fontColor=#333333;strokeColor=#000000;" vertex="1" parent="1">
          <mxGeometry x="-510" y="35" width="85" height="50" as="geometry" />
        </mxCell>
        <mxCell id="tmKrowgk_wzVTvCXA8D7-13" style="edgeStyle=orthogonalEdgeStyle;rounded=0;orthogonalLoop=1;jettySize=auto;html=1;curved=0;" edge="1" parent="1">
          <mxGeometry relative="1" as="geometry">
            <Array as="points" />
            <mxPoint x="-1306.25" y="230" as="sourcePoint" />
            <mxPoint x="-946.25" y="230" as="targetPoint" />
          </mxGeometry>
        </mxCell>
        <mxCell id="tmKrowgk_wzVTvCXA8D7-14" value="validateLogin(username : string, OTP : string) : string" style="edgeLabel;html=1;align=center;verticalAlign=middle;resizable=0;points=[];" connectable="0" vertex="1" parent="tmKrowgk_wzVTvCXA8D7-13">
          <mxGeometry x="-0.04" y="-1" relative="1" as="geometry">
            <mxPoint y="-11" as="offset" />
          </mxGeometry>
        </mxCell>
        <mxCell id="tmKrowgk_wzVTvCXA8D7-15" style="edgeStyle=orthogonalEdgeStyle;rounded=0;orthogonalLoop=1;jettySize=auto;html=1;curved=0;" edge="1" parent="1">
          <mxGeometry relative="1" as="geometry">
            <Array as="points">
              <mxPoint x="-936.25" y="290" />
              <mxPoint x="-906.25" y="290" />
              <mxPoint x="-906.25" y="330" />
            </Array>
            <mxPoint x="-936" y="290" as="sourcePoint" />
            <mxPoint x="-936.25" y="330" as="targetPoint" />
          </mxGeometry>
        </mxCell>
        <mxCell id="tmKrowgk_wzVTvCXA8D7-16" value="hashOTP(OTP : string, user_salt : string) : string" style="edgeLabel;html=1;align=center;verticalAlign=middle;resizable=0;points=[];" connectable="0" vertex="1" parent="tmKrowgk_wzVTvCXA8D7-15">
          <mxGeometry x="-0.1425" y="-2" relative="1" as="geometry">
            <mxPoint x="124" y="18" as="offset" />
          </mxGeometry>
        </mxCell>
        <mxCell id="tmKrowgk_wzVTvCXA8D7-17" value="" style="line;strokeWidth=2;direction=south;html=1;dashed=1;" vertex="1" parent="1">
          <mxGeometry x="-947.5" y="80" width="10" height="150" as="geometry" />
        </mxCell>
        <mxCell id="tmKrowgk_wzVTvCXA8D7-18" style="edgeStyle=orthogonalEdgeStyle;rounded=0;orthogonalLoop=1;jettySize=auto;html=1;curved=0;" edge="1" parent="1" target="tmKrowgk_wzVTvCXA8D7-24">
          <mxGeometry relative="1" as="geometry">
            <Array as="points">
              <mxPoint x="-820" y="370" />
              <mxPoint x="-820" y="370" />
            </Array>
            <mxPoint x="-937.5" y="370" as="sourcePoint" />
            <mxPoint x="-481.25" y="370" as="targetPoint" />
          </mxGeometry>
        </mxCell>
        <mxCell id="tmKrowgk_wzVTvCXA8D7-19" value="validateUserOTPHash(hashedOTP : string) : string" style="edgeLabel;html=1;align=center;verticalAlign=middle;resizable=0;points=[];" connectable="0" vertex="1" parent="tmKrowgk_wzVTvCXA8D7-18">
          <mxGeometry x="-0.04" y="1" relative="1" as="geometry">
            <mxPoint y="-9" as="offset" />
          </mxGeometry>
        </mxCell>
        <mxCell id="tmKrowgk_wzVTvCXA8D7-20" value="`" style="edgeStyle=orthogonalEdgeStyle;rounded=0;orthogonalLoop=1;jettySize=auto;html=1;curved=0;" edge="1" parent="1">
          <mxGeometry relative="1" as="geometry">
            <Array as="points">
              <mxPoint x="-460" y="380" />
              <mxPoint x="-430" y="380" />
              <mxPoint x="-430" y="400" />
              <mxPoint x="-460" y="400" />
            </Array>
            <mxPoint x="-460" y="370" as="sourcePoint" />
            <mxPoint x="-460" y="400" as="targetPoint" />
          </mxGeometry>
        </mxCell>
        <mxCell id="tmKrowgk_wzVTvCXA8D7-21" value="SELECT profile_user_role, user_hash&lt;br&gt;FROM userProfile UP INNER JOIN userAccount UA&lt;br&gt;ON UP.user_hash = UA.user_hash&lt;br&gt;WHERE hashedOTP = UA.hashed_otp" style="edgeLabel;align=center;verticalAlign=middle;resizable=1;points=[];movable=1;rotatable=1;deletable=1;editable=1;locked=0;connectable=1;rotation=0;html=1;fontSize=10;" connectable="0" vertex="1" parent="tmKrowgk_wzVTvCXA8D7-20">
          <mxGeometry x="-0.2923" y="1" relative="1" as="geometry">
            <mxPoint x="128" y="16" as="offset" />
          </mxGeometry>
        </mxCell>
        <mxCell id="tmKrowgk_wzVTvCXA8D7-22" style="edgeStyle=orthogonalEdgeStyle;rounded=0;orthogonalLoop=1;jettySize=auto;html=1;curved=0;" edge="1" parent="1">
          <mxGeometry relative="1" as="geometry">
            <Array as="points">
              <mxPoint x="-936" y="240" />
              <mxPoint x="-906" y="240" />
              <mxPoint x="-906" y="280" />
            </Array>
            <mxPoint x="-936" y="240" as="sourcePoint" />
            <mxPoint x="-936.25" y="280" as="targetPoint" />
          </mxGeometry>
        </mxCell>
        <mxCell id="tmKrowgk_wzVTvCXA8D7-23" value="SqlConnection()" style="edgeLabel;html=1;align=center;verticalAlign=middle;resizable=0;points=[];" connectable="0" vertex="1" parent="tmKrowgk_wzVTvCXA8D7-22">
          <mxGeometry x="-0.1425" y="-2" relative="1" as="geometry">
            <mxPoint x="50" y="14" as="offset" />
          </mxGeometry>
        </mxCell>
        <mxCell id="tmKrowgk_wzVTvCXA8D7-24" value="" style="line;strokeWidth=2;direction=south;html=1;dashed=1;" vertex="1" parent="1">
          <mxGeometry x="-470" y="90" width="10" height="280" as="geometry" />
        </mxCell>
        <mxCell id="tmKrowgk_wzVTvCXA8D7-25" value="" style="line;strokeWidth=2;direction=south;html=1;dashed=1;" vertex="1" parent="1">
          <mxGeometry x="-947.5" y="630" width="10" height="110" as="geometry" />
        </mxCell>
        <mxCell id="tmKrowgk_wzVTvCXA8D7-26" value="" style="line;strokeWidth=2;direction=south;html=1;dashed=1;" vertex="1" parent="1">
          <mxGeometry x="-1317.5" y="630" width="10" height="110" as="geometry" />
        </mxCell>
        <mxCell id="tmKrowgk_wzVTvCXA8D7-27" value="User has already received their OTP from their email" style="text;html=1;align=center;verticalAlign=middle;whiteSpace=wrap;rounded=0;fillColor=#FFFFFF;fontColor=#333333;strokeColor=#000000;strokeWidth=2;" vertex="1" parent="1">
          <mxGeometry x="-1360" y="140" width="110" height="50" as="geometry" />
        </mxCell>
        <mxCell id="tmKrowgk_wzVTvCXA8D7-28" value="LogManager" style="shape=umlLifeline;perimeter=lifelinePerimeter;whiteSpace=wrap;html=1;container=1;dropTarget=0;collapsible=0;recursiveResize=0;outlineConnect=0;portConstraint=eastwest;newEdgeStyle={&quot;curved&quot;:0,&quot;rounded&quot;:0};strokeWidth=2;" vertex="1" parent="1">
          <mxGeometry x="-620" y="40" width="100" height="700" as="geometry" />
        </mxCell>
        <mxCell id="tmKrowgk_wzVTvCXA8D7-29" value="" style="html=1;points=[[0,0,0,0,5],[0,1,0,0,-5],[1,0,0,0,5],[1,1,0,0,-5]];perimeter=orthogonalPerimeter;outlineConnect=0;targetShapes=umlLifeline;portConstraint=eastwest;newEdgeStyle={&quot;curved&quot;:0,&quot;rounded&quot;:0};" vertex="1" parent="tmKrowgk_wzVTvCXA8D7-28">
          <mxGeometry x="45" y="410" width="10" height="60" as="geometry" />
        </mxCell>
        <mxCell id="tmKrowgk_wzVTvCXA8D7-30" value="return True" style="html=1;verticalAlign=bottom;endArrow=open;dashed=1;endSize=8;curved=0;rounded=0;exitX=0;exitY=1;exitDx=0;exitDy=-5;exitPerimeter=0;" edge="1" parent="1" source="tmKrowgk_wzVTvCXA8D7-29" target="tmKrowgk_wzVTvCXA8D7-7">
          <mxGeometry relative="1" as="geometry">
            <mxPoint x="-682.5" y="465" as="targetPoint" />
          </mxGeometry>
        </mxCell>
        <mxCell id="tmKrowgk_wzVTvCXA8D7-31" value="logInsert(UserHash : string, ActionType : string, &lt;br&gt;Timestamp : date, Status : string, Details : string) : bool" style="html=1;verticalAlign=bottom;endArrow=block;curved=0;rounded=0;" edge="1" parent="1">
          <mxGeometry x="0.0016" relative="1" as="geometry">
            <mxPoint x="-937.5" y="450" as="sourcePoint" />
            <mxPoint x="-575" y="450" as="targetPoint" />
            <mxPoint as="offset" />
          </mxGeometry>
        </mxCell>
        <mxCell id="tmKrowgk_wzVTvCXA8D7-36" value="" style="line;strokeWidth=2;direction=south;html=1;dashed=1;" vertex="1" parent="1">
          <mxGeometry x="-472" y="420" width="10" height="120" as="geometry" />
        </mxCell>
        <mxCell id="tmKrowgk_wzVTvCXA8D7-37" value="" style="line;strokeWidth=2;direction=south;html=1;dashed=1;" vertex="1" parent="1">
          <mxGeometry x="-472" y="530" width="10" height="210" as="geometry" />
        </mxCell>
        <mxCell id="tmKrowgk_wzVTvCXA8D7-38" value="Role Object" style="shape=umlLifeline;perimeter=lifelinePerimeter;whiteSpace=wrap;html=1;container=1;dropTarget=0;collapsible=0;recursiveResize=0;outlineConnect=0;portConstraint=eastwest;newEdgeStyle={&quot;curved&quot;:0,&quot;rounded&quot;:0};strokeWidth=2;" vertex="1" parent="1">
          <mxGeometry x="-780" y="40" width="100" height="700" as="geometry" />
        </mxCell>
        <mxCell id="tmKrowgk_wzVTvCXA8D7-39" value="" style="html=1;points=[[0,0,0,0,5],[0,1,0,0,-5],[1,0,0,0,5],[1,1,0,0,-5]];perimeter=orthogonalPerimeter;outlineConnect=0;targetShapes=umlLifeline;portConstraint=eastwest;newEdgeStyle={&quot;curved&quot;:0,&quot;rounded&quot;:0};" vertex="1" parent="tmKrowgk_wzVTvCXA8D7-38">
          <mxGeometry x="45" y="530" width="10" height="60" as="geometry" />
        </mxCell>
        <mxCell id="tmKrowgk_wzVTvCXA8D7-40" value="createUserRoleObject(userRole : string, userHash : string) : RoleObject" style="html=1;verticalAlign=bottom;endArrow=block;curved=0;rounded=0;" edge="1" parent="1" source="tmKrowgk_wzVTvCXA8D7-7">
          <mxGeometry relative="1" as="geometry">
            <mxPoint x="-655" y="575" as="sourcePoint" />
            <mxPoint x="-730" y="570" as="targetPoint" />
          </mxGeometry>
        </mxCell>
        <mxCell id="tmKrowgk_wzVTvCXA8D7-41" value="return RoleObject" style="html=1;verticalAlign=bottom;endArrow=open;dashed=1;endSize=8;curved=0;rounded=0;exitX=0;exitY=1;exitDx=0;exitDy=-5;entryX=0.5;entryY=0.988;entryDx=0;entryDy=0;entryPerimeter=0;exitPerimeter=0;" edge="1" parent="1" source="tmKrowgk_wzVTvCXA8D7-39" target="tmKrowgk_wzVTvCXA8D7-7">
          <mxGeometry relative="1" as="geometry">
            <mxPoint x="-655" y="645" as="targetPoint" />
          </mxGeometry>
        </mxCell>
        <mxCell id="7kXeKePwYtpsD6fPHzqQ-4" value="1. User has OTP&lt;br&gt;2. User validates login by inputting username and OTP&lt;br&gt;3. Make SQL Connection&lt;br&gt;4. Hash the user inputted OTP&lt;br&gt;5. Compares the user hashed OTP to OTP stored in the database, returns username and user_role&lt;br&gt;6. Use username and userRole to create a role object&lt;br&gt;7. Assign user to that userRole object" style="text;html=1;strokeColor=none;fillColor=none;align=center;verticalAlign=middle;whiteSpace=wrap;rounded=0;" vertex="1" parent="1">
          <mxGeometry x="-370" y="25" width="320" height="165" as="geometry" />
        </mxCell>
      </root>
    </mxGraphModel>
  </diagram>
</mxfile>
